<svg width="121" height="33" viewBox="0 0 110 30" fill="none" xmlns="http://www.w3.org/2000/svg">
<path d="M14.8309 7.11759C14.7686 7.03495 14.5505 6.87886 14.1767 6.64932C13.8028 6.41978 13.3355 6.18106 12.7747 5.93132C12.2139 5.68158 11.6008 5.46306 10.9365 5.27575C10.2879 5.09071 9.61693 4.99616 8.94255 4.9948C7.11445 4.9948 6.20086 5.60905 6.20086 6.83663C6.20086 7.21124 6.29891 7.52341 6.49684 7.77315C6.69385 8.02289 6.98433 8.24692 7.36919 8.44433C7.75314 8.64173 8.23605 8.82445 8.81701 8.99063L10.1054 9.35147L10.843 9.55255C11.9023 9.84361 12.8571 10.1613 13.7093 10.5047C14.5606 10.8481 15.2827 11.275 15.8746 11.7846C16.4652 12.2926 16.9338 12.9275 17.2455 13.642C17.5662 14.3701 17.7284 15.2442 17.7284 16.2643C17.7284 17.513 17.4947 18.5689 17.0274 19.4329C16.5601 20.296 15.9415 20.9938 15.1736 21.5245C14.4039 22.0551 13.5224 22.4399 12.5254 22.6795C11.5285 22.9182 10.5003 23.0385 9.44103 23.0385C7.75333 23.0289 6.07533 22.7819 4.45615 22.3049C3.64611 22.0662 2.86172 21.7797 2.10391 21.4464C1.36897 21.1264 0.664735 20.7398 0 20.2914L2.2432 15.8273C2.32567 15.931 2.59599 16.1293 3.05324 16.4204C3.50958 16.7115 4.07587 17.0034 4.75121 17.2945C5.42564 17.5855 6.17887 17.8454 7.00999 18.0749C7.84019 18.3045 8.68139 18.4183 9.53358 18.4183C11.3406 18.4183 12.2441 17.8674 12.2441 16.7638C12.2441 16.3479 12.1085 16.0045 11.8391 15.7336C11.5688 15.4628 11.1949 15.2185 10.7175 15C10.2696 14.7991 9.80927 14.6274 9.33932 14.4858L7.77971 14.0313L6.88537 13.7669C5.86731 13.4547 4.98488 13.1169 4.23715 12.7523C3.48942 12.3878 2.8718 11.9664 2.3834 11.488C1.90404 11.0226 1.53189 10.458 1.29295 9.83351C1.05379 9.20916 0.934665 8.48106 0.934665 7.64828C0.934665 6.48222 1.15275 5.45296 1.58893 4.55775C2.00943 3.68281 2.6155 2.91041 3.36479 2.29448C4.13498 1.66849 5.0182 1.19685 5.96628 0.905307C6.95226 0.593132 7.99597 0.437045 9.09741 0.437045C9.8653 0.437045 10.624 0.510498 11.3718 0.655567C12.1195 0.801555 12.8361 0.98886 13.5215 1.21748C14.2069 1.44702 14.8456 1.70686 15.4366 1.99792C16.0295 2.28898 16.5747 2.58095 17.0732 2.87201L14.83 7.11759H14.8309ZM36.2952 22.7888H31.3104V13.5796C31.3104 12.5182 31.1024 11.7378 30.6873 11.2383C30.2712 10.7388 29.7004 10.4891 28.9737 10.4891C28.6823 10.4891 28.3662 10.557 28.0235 10.692C27.663 10.8378 27.3268 11.0378 27.0265 11.2851C26.6945 11.5553 26.396 11.8645 26.1376 12.206C25.8654 12.5639 25.6548 12.9649 25.5145 13.3923V22.7888H20.5296V0H25.5145V9.14672C26.0925 8.19182 26.916 7.41014 27.8988 6.88345C28.8848 6.35276 29.9698 6.08741 31.1546 6.08741C32.2551 6.08741 33.143 6.28022 33.8184 6.66493C34.4928 7.05056 35.0124 7.53902 35.3762 8.13215C35.739 8.72529 35.9837 9.39095 36.1083 10.1301C36.2329 10.8692 36.2952 11.5918 36.2952 12.2997V22.7888V22.7888ZM47.6029 23.1009C46.2109 23.1009 44.9702 22.8714 43.8798 22.4142C42.7893 21.956 41.8702 21.3371 41.1216 20.5567C40.3754 19.7781 39.7976 18.8535 39.4245 17.8408C39.0394 16.8074 38.8438 15.7128 38.8472 14.6098C38.8472 13.486 39.0397 12.4089 39.4245 11.3788C39.7979 10.366 40.376 9.44137 41.1225 8.66285C41.8702 7.88241 42.7893 7.25806 43.8798 6.7898C44.9702 6.32154 46.2109 6.08741 47.6029 6.08741C48.9948 6.08741 50.23 6.32154 51.3104 6.7898C52.3907 7.25806 53.3043 7.88241 54.052 8.66285C54.7998 9.44337 55.3827 10.3671 55.7656 11.3788C56.1604 12.4099 56.3611 13.5054 56.3576 14.6098C56.361 15.7128 56.1654 16.8074 55.7803 17.8408C55.4072 18.8535 54.8294 19.7781 54.0832 20.5567C53.3355 21.3371 52.4155 21.956 51.325 22.4142C50.2346 22.8723 48.9948 23.1009 47.6029 23.1009V23.1009ZM43.9568 14.6098C43.9568 15.8998 44.2995 16.9355 44.9849 17.7159C45.6703 18.4964 46.5427 18.8866 47.6019 18.8866C48.097 18.8919 48.5869 18.7852 49.0351 18.5744C49.4713 18.366 49.8506 18.0749 50.1714 17.7003C50.5085 17.2995 50.7677 16.8389 50.9356 16.3424C51.1269 15.7851 51.2217 15.1991 51.216 14.6098C51.216 13.3198 50.8733 12.2841 50.1879 11.5036C49.5024 10.7232 48.6402 10.333 47.6019 10.333C47.1081 10.329 46.6194 10.4331 46.1699 10.638C45.7204 10.8429 45.321 11.1436 44.9995 11.5193C44.663 11.9202 44.4044 12.3808 44.2371 12.8772C44.0458 13.4345 43.951 14.0205 43.9568 14.6098V14.6098ZM69.409 10.6764C68.204 10.6975 67.1135 10.8949 66.1376 11.2695C65.1617 11.6441 64.4552 12.206 64.0191 12.9553V22.7888H59.0342V6.39958H63.614V9.70864C64.1748 8.60592 64.8969 7.74194 65.7793 7.11759C66.6618 6.49324 67.6019 6.17096 68.5989 6.14984H69.0974C69.201 6.14984 69.3054 6.15994 69.409 6.18106V10.6764V10.6764ZM82.3055 21.9147C81.5391 22.2341 80.7535 22.5052 79.9533 22.7263C79.0708 22.9761 78.1829 23.1009 77.2895 23.1009C76.6664 23.1009 76.0799 23.0229 75.5301 22.8668C74.9999 22.7215 74.506 22.4662 74.0805 22.1176C73.6654 21.7742 73.3382 21.3215 73.1 20.7596C72.8599 20.1977 72.7408 19.521 72.7408 18.7305V10.1769H70.6534V6.39958H72.7408V1.18626H77.7256V6.39958H81.0593V10.1769H77.7256V17.0135C77.7256 17.5552 77.8604 17.9445 78.1307 18.1842C78.401 18.4229 78.7437 18.5432 79.1588 18.5432C79.5327 18.5432 79.9166 18.4807 80.3116 18.3559C80.7056 18.231 81.0492 18.096 81.3397 17.9501L82.3055 21.9147V21.9147ZM84.392 0H89.3769V16.9511C89.3769 18.1998 89.9065 18.8241 90.9658 18.8241C91.2151 18.8241 91.49 18.7874 91.7914 18.7149C92.0929 18.6414 92.3687 18.5331 92.6171 18.3871L93.2713 22.1332C92.6482 22.4243 91.9316 22.6538 91.1216 22.82C90.3116 22.9862 89.5537 23.0697 88.8472 23.0697C87.4141 23.0697 86.3136 22.6951 85.5448 21.9459C84.776 21.1967 84.392 20.1142 84.392 18.6993V0V0ZM94.8896 25.2549C95.3056 25.4009 95.695 25.5047 96.0579 25.5671C96.3818 25.6259 96.7101 25.6572 97.0393 25.6608C97.6423 25.6608 98.1096 25.4523 98.4413 25.0364C98.7739 24.6205 99.0754 23.8704 99.3448 22.7888L93.1137 6.39958H98.2544L102.055 18.512L105.327 6.39958H110L103.769 25.4422C103.357 26.7602 102.539 27.9133 101.432 28.7357C100.311 29.5786 98.982 30 97.4443 30C97.0214 29.9994 96.5993 29.9628 96.1825 29.8907C95.7412 29.8135 95.3085 29.6932 94.8905 29.5317V25.2549H94.8896Z" fill="white"/>
</svg>
